<svg width="640" height="400" viewBox="0 0 640 400" fill="none" xmlns="http://www.w3.org/2000/svg">
  <defs>
    <linearGradient id="bg" x1="0" x2="1" y1="0" y2="1">
      <stop stop-color="#07111F"/>
      <stop offset="1" stop-color="#13253A"/>
    </linearGradient>
    <linearGradient id="accent" x1="0" x2="1" y1="0" y2="1">
      <stop stop-color="#6EE7FF"/>
      <stop offset="1" stop-color="#8B5CF6"/>
    </linearGradient>
  </defs>
  <rect width="640" height="400" rx="32" fill="url(#bg)"/>
  <circle cx="500" cy="100" r="88" fill="#09B8A5" fill-opacity="0.15"/>
  <circle cx="150" cy="320" r="110" fill="#FF6F3D" fill-opacity="0.14"/>
  <rect x="92" y="106" width="456" height="188" rx="28" fill="#0E1E31" stroke="#22384E"/>
  <rect x="126" y="142" width="114" height="20" rx="10" fill="#17314A"/>
  <rect x="126" y="178" width="188" height="16" rx="8" fill="#17314A"/>
  <rect x="126" y="210" width="160" height="16" rx="8" fill="#17314A"/>
  <rect x="126" y="246" width="220" height="16" rx="8" fill="#17314A"/>
  <path d="M390 202C390 165.6 419.6 136 456 136H478C514.4 136 544 165.6 544 202V226C544 262.4 514.4 292 478 292H456C419.6 292 390 262.4 390 226V202Z" fill="url(#accent)" fill-opacity="0.18"/>
  <rect x="404" y="156" width="48" height="48" rx="14" fill="#6EE7FF" fill-opacity="0.95"/>
  <rect x="468" y="156" width="48" height="48" rx="14" fill="#8B5CF6" fill-opacity="0.95"/>
  <rect x="404" y="220" width="112" height="18" rx="9" fill="#17314A"/>
  <path d="M430 182L443 195L467 170" stroke="#07111F" stroke-width="12" stroke-linecap="round" stroke-linejoin="round"/>
  <text x="126" y="334" fill="#BFD3EB" font-family="Arial, Helvetica, sans-serif" font-size="18" letter-spacing="6">SEO CATEGORY</text>
</svg>
